<?xml version="1.0" standalone="no"?>
<!DOCTYPE svg PUBLIC "-//W3C//DTD SVG 20010904//EN"
 "http://www.w3.org/TR/2001/REC-SVG-20010904/DTD/svg10.dtd">
<svg version="1.0" xmlns="http://www.w3.org/2000/svg"
 width="500.000000pt" height="500.000000pt" viewBox="0 0 500.000000 500.000000"
 preserveAspectRatio="xMidYMid meet">

<g transform="translate(0.000000,500.000000) scale(0.100000,-0.100000)"
fill="#000000" stroke="none">
<path d="M2403 3548 l-42 -9 35 -97 c20 -53 37 -98 38 -99 2 -2 16 2 32 7 l30
11 -20 99 c-11 55 -23 100 -26 99 -3 -1 -24 -5 -47 -11z"/>
<path d="M2546 3538 c5 -7 0 -9 -14 -6 -18 5 -20 3 -12 -12 5 -9 7 -20 4 -23
-3 -3 -3 -34 1 -69 l7 -64 34 4 34 4 0 54 c0 41 -4 56 -16 61 -13 5 -13 8 -2
15 9 7 7 8 -9 5 -25 -6 -40 8 -22 19 8 5 9 3 4 -6 -5 -9 -4 -11 4 -6 9 6 9 11
0 22 -14 17 -23 19 -13 2z"/>
<path d="M2263 3490 c-18 -11 -33 -22 -33 -26 0 -8 101 -153 111 -160 5 -3 19
1 32 8 l24 13 -43 93 c-23 50 -46 92 -51 92 -4 0 -23 -9 -40 -20z"/>
<path d="M2145 3400 l-29 -30 59 -61 c77 -78 85 -82 114 -58 l23 19 -63 79
c-35 44 -67 80 -70 80 -3 1 -18 -13 -34 -29z"/>
<path d="M2647 3393 c-16 -15 -5 -28 26 -30 23 -2 28 0 17 7 -14 9 -7 14 13
11 5 -1 6 3 2 9 -5 8 -11 7 -22 -1 -11 -10 -16 -10 -22 -1 -4 7 -10 9 -14 5z"/>
<path d="M2051 3291 c-12 -16 -21 -34 -21 -39 0 -14 169 -104 180 -97 6 3 14
14 19 24 8 14 1 24 -42 56 -29 21 -66 49 -84 62 l-31 24 -21 -30z"/>
<path d="M2551 3258 c1 -74 17 -92 18 -20 1 35 -3 62 -9 62 -5 0 -10 -19 -9
-42z"/>
<path d="M2626 3244 c-6 -51 -3 -75 8 -63 9 10 17 119 8 119 -5 0 -12 -25 -16
-56z"/>
<path d="M2460 3286 c0 -12 44 -116 47 -112 7 7 -28 116 -38 116 -5 0 -9 -2
-9 -4z"/>
<path d="M2712 3263 c0 -5 -7 -25 -16 -46 -9 -22 -15 -44 -13 -50 3 -7 14 10
26 36 23 54 26 67 11 67 -5 0 -9 -3 -8 -7z"/>
<path d="M2772 3204 c3 -3 -5 -17 -18 -31 -24 -26 -31 -43 -16 -43 8 0 52 62
52 73 0 4 -5 7 -12 7 -6 0 -9 -3 -6 -6z"/>
<path d="M1980 3144 c-7 -19 -10 -37 -8 -38 1 -1 47 -14 100 -28 100 -27 108
-26 108 16 0 11 -160 87 -182 86 -3 0 -12 -16 -18 -36z"/>
<path d="M2593 3115 c0 -22 2 -30 4 -17 2 12 2 30 0 40 -3 9 -5 -1 -4 -23z"/>
<path d="M2805 3126 c-16 -13 -27 -27 -24 -30 3 -3 18 8 34 24 35 36 31 38
-10 6z"/>
<path d="M2541 3128 c1 -7 5 -24 9 -38 7 -22 8 -21 9 13 1 20 -3 37 -9 37 -5
0 -10 -6 -9 -12z"/>
<path d="M2637 3133 c-2 -4 -7 -21 -10 -38 -6 -30 -6 -30 9 4 8 18 13 35 11
38 -3 2 -7 1 -10 -4z"/>
<path d="M2498 3124 c-3 -5 3 -22 13 -39 11 -16 19 -23 19 -15 -1 21 -26 64
-32 54z"/>
<path d="M2665 3088 l-16 -33 21 24 c11 13 20 27 20 32 0 18 -10 8 -25 -23z"/>
<path d="M2460 3088 c0 -8 9 -23 20 -33 16 -15 20 -15 20 -3 0 8 -9 23 -20 33
-16 15 -20 15 -20 3z"/>
<path d="M2699 3063 l-24 -28 28 24 c25 23 32 31 24 31 -2 0 -14 -12 -28 -27z"/>
<path d="M2843 3073 c-27 -14 -44 -33 -30 -33 13 0 67 33 67 41 0 11 2 11 -37
-8z"/>
<path d="M2426 3062 c-6 -10 42 -47 50 -40 2 3 -7 15 -20 27 -13 12 -27 18
-30 13z"/>
<path d="M1950 2996 l0 -34 63 -7 c34 -4 80 -5 102 -3 35 3 40 6 40 28 0 23
-5 25 -75 36 -125 20 -130 20 -130 -20z"/>
<path d="M2400 3015 c0 -11 28 -24 53 -25 18 0 4 17 -23 27 -24 9 -30 9 -30
-2z"/>
<path d="M2883 3012 c-57 -16 -74 -39 -22 -28 17 3 38 6 45 6 7 0 18 9 24 20
6 11 9 19 8 19 -2 -1 -27 -8 -55 -17z"/>
<path d="M2390 2971 c0 -11 51 -21 64 -13 5 3 1 9 -10 13 -27 11 -54 11 -54 0z"/>
<path d="M2390 2924 c0 -12 6 -15 23 -10 12 3 25 6 30 6 4 0 7 5 7 10 0 6 -13
10 -30 10 -21 0 -30 -5 -30 -16z"/>
<path d="M2837 2929 c7 -7 35 -14 62 -17 42 -4 51 -2 51 12 0 13 -11 16 -62
16 -46 0 -59 -3 -51 -11z"/>
<path d="M2080 2895 c-8 -2 -41 -7 -74 -10 l-58 -7 6 -31 c8 -40 8 -40 52 -28
22 5 65 15 97 21 51 10 58 14 55 33 -2 17 -10 22 -33 24 -16 0 -37 0 -45 -2z"/>
<path d="M2408 2893 c-9 -2 -15 -10 -12 -18 4 -10 12 -10 35 -2 49 19 31 34
-23 20z"/>
<path d="M2825 2871 c-3 -6 0 -13 7 -16 41 -15 101 -35 104 -35 2 0 4 8 4 19
0 12 -9 20 -29 24 -16 3 -40 9 -54 12 -14 4 -28 2 -32 -4z"/>
<path d="M2433 2858 c-24 -12 -29 -23 -14 -33 5 -3 22 6 38 20 30 26 17 33
-24 13z"/>
<path d="M2303 2827 c-56 -21 -60 -26 -42 -58 10 -19 11 -19 60 7 48 27 56 38
41 60 -5 8 -22 6 -59 -9z"/>
<path d="M2461 2826 c-15 -15 -19 -26 -12 -31 14 -8 28 1 41 25 15 29 -4 32
-29 6z"/>
<path d="M2670 2827 c0 -20 37 -50 50 -42 8 5 4 15 -11 31 -25 27 -39 31 -39
11z"/>
<path d="M2492 2799 c-9 -14 -10 -25 -4 -31 7 -7 16 0 26 21 13 24 13 31 4 31
-7 0 -19 -10 -26 -21z"/>
<path d="M2645 2793 c9 -37 22 -50 36 -36 8 8 6 18 -6 37 -23 34 -39 34 -30
-1z"/>
<path d="M2800 2810 c0 -14 89 -72 100 -65 21 13 8 32 -35 53 -50 24 -65 27
-65 12z"/>
<path d="M2531 2783 c-10 -21 -9 -28 1 -34 12 -8 24 13 27 49 2 22 -15 13 -28
-15z"/>
<path d="M2610 2775 c0 -29 4 -35 21 -35 16 0 19 4 14 18 -4 9 -10 25 -12 35
-9 30 -23 19 -23 -18z"/>
<path d="M2570 2770 c0 -20 5 -30 15 -30 10 0 15 10 15 30 0 20 -5 30 -15 30
-10 0 -15 -10 -15 -30z"/>
<path d="M2063 2758 c-82 -30 -82 -30 -70 -56 6 -15 12 -29 14 -31 1 -2 43 16
93 40 63 30 90 48 88 59 -5 23 -36 21 -125 -12z"/>
<path d="M2333 2759 c-48 -34 -50 -39 -25 -62 16 -14 20 -13 60 25 35 32 41
42 31 54 -15 19 -17 18 -66 -17z"/>
<path d="M2764 2765 c-5 -12 6 -29 35 -58 40 -40 43 -41 56 -24 12 17 10 22
-18 46 -65 54 -66 55 -73 36z"/>
<path d="M2384 2704 c-37 -44 -37 -47 -19 -60 28 -20 30 -19 64 36 29 47 30
50 11 60 -16 8 -25 3 -56 -36z"/>
<path d="M2721 2731 c-10 -6 -7 -20 13 -60 26 -50 51 -65 62 -37 8 21 -59 106
-75 97z"/>
<path d="M2445 2660 l-25 -50 26 -10 c15 -6 28 -9 29 -8 4 6 35 102 35 110 0
4 -9 8 -20 8 -14 0 -27 -15 -45 -50z"/>
<path d="M2663 2702 c-9 -5 -8 -21 4 -65 14 -50 19 -57 37 -51 12 4 22 8 24 9
4 4 -42 115 -48 115 -3 0 -10 -4 -17 -8z"/>
<path d="M2140 2649 c-41 -29 -76 -53 -78 -54 -7 -6 19 -45 29 -45 11 0 79 52
131 98 23 21 25 27 13 38 -7 8 -15 14 -17 14 -2 0 -37 -23 -78 -51z"/>
<path d="M2518 2639 l-15 -59 24 -6 c13 -4 25 -5 27 -3 2 2 7 29 10 60 6 51 5
57 -12 61 -17 5 -22 -3 -34 -53z"/>
<path d="M2590 2630 l0 -60 31 0 c22 0 30 4 26 14 -3 7 -9 34 -12 60 -6 36
-11 46 -26 46 -17 0 -19 -8 -19 -60z"/>
<path d="M2889 2593 c88 -108 109 -128 122 -115 11 10 0 26 -56 82 -74 75
-118 97 -66 33z"/>
<path d="M2221 2548 c-34 -40 -61 -75 -61 -78 0 -3 9 -11 20 -17 17 -12 25 -5
80 65 59 76 76 108 43 81 -15 -12 -16 -12 -10 4 13 35 -12 15 -72 -55z"/>
<path d="M2780 2565 c0 -13 91 -185 98 -185 4 0 13 5 19 11 13 13 -84 179
-104 179 -7 0 -13 -2 -13 -5z"/>
<path d="M2322 2462 c-40 -71 -42 -77 -26 -89 10 -7 21 -13 25 -13 4 0 21 34
39 76 26 64 29 79 18 90 -11 11 -20 0 -56 -64z"/>
<path d="M2684 2513 c3 -10 10 -40 16 -68 24 -113 29 -123 50 -118 11 3 20 8
20 12 0 3 -14 48 -31 98 -20 62 -36 93 -45 93 -10 0 -13 -6 -10 -17z"/>
<path d="M2466 2493 c-3 -16 -14 -59 -25 -96 -16 -57 -17 -69 -5 -74 27 -10
44 6 44 42 0 19 1 37 2 40 8 25 13 93 6 89 -4 -3 -8 -1 -8 5 0 5 6 12 13 14 7
4 6 6 -4 6 -10 1 -19 -10 -23 -26z"/>
<path d="M2580 2431 c0 -49 -3 -96 -6 -105 -5 -12 0 -16 21 -16 l28 0 -7 77
c-9 97 -16 133 -27 133 -5 0 -9 -40 -9 -89z"/>
</g>
</svg>
